<?xml version="1.0" encoding="UTF-8" standalone="no"?>
<svg
   viewBox="0 0 93.566005 125"
   version="1.1"
   id="svg2"
   sodipodi:docname="logo-cropped-best.svg"
   inkscape:version="1.4.2 (f4327f4, 2025-05-13)"
   width="93.566002"
   height="125"
   inkscape:export-filename="logo-cropped-best.png"
   inkscape:export-xdpi="96"
   inkscape:export-ydpi="96"
   xmlns:inkscape="http://www.inkscape.org/namespaces/inkscape"
   xmlns:sodipodi="http://sodipodi.sourceforge.net/DTD/sodipodi-0.dtd"
   xmlns="http://www.w3.org/2000/svg"
   xmlns:svg="http://www.w3.org/2000/svg">
  <defs
     id="defs2" />
  <sodipodi:namedview
     id="namedview2"
     pagecolor="#ffffff"
     bordercolor="#000000"
     borderopacity="0.25"
     inkscape:showpageshadow="2"
     inkscape:pageopacity="0.0"
     inkscape:pagecheckerboard="0"
     inkscape:deskcolor="#d1d1d1"
     inkscape:zoom="4.44"
     inkscape:cx="78.040541"
     inkscape:cy="53.265766"
     inkscape:window-width="1920"
     inkscape:window-height="1009"
     inkscape:window-x="3352"
     inkscape:window-y="-8"
     inkscape:window-maximized="1"
     inkscape:current-layer="svg2" />
  <path
     fill="gold"
     d="m 46.282335,124.91856 c -0.81993,-0.26457 -3.005744,-1.2978 -4.6956,-2.22079 -3.127734,-1.70769 -5.354544,-3.13678 -8.184303,-5.25135 -3.129734,-2.34005 -7.209386,-6.15729 -10.533103,-9.85929 -1.619862,-1.8039 -4.23164,-5.34154 -5.99149,-8.117527 C 15.475958,97.258829 14.504041,95.538113 13.528124,93.5408 11.635285,89.672446 10.414389,86.537676 9.3004845,82.697382 8.4645557,79.817163 7.6156279,75.568988 7.3046544,72.712821 7.1326691,71.130403 7.1026716,70.518081 7.1036715,68.568871 c 0,-2.410205 0.1309889,-4.094844 0.4999575,-6.40884 0.2889754,-1.815922 1.0929069,-4.710173 1.8008466,-6.483001 L 9.7474464,54.819178 9.129499,54.465414 C 5.3598201,52.308756 2.3540761,49.366402 0.90219964,46.410017 0.11226691,44.803548 -0.14771095,43.444613 0.07826981,42.125765 0.4682366,39.852856 1.1961746,38.211312 2.6060546,36.422449 3.1580076,35.72394 4.574887,34.321912 5.3788185,33.678523 c 2.1738148,-1.735749 5.1885575,-3.408361 7.8713295,-4.36643 2.085822,-0.743606 6.163475,-1.936182 7.292379,-2.131603 0.322972,-0.05613 0.367969,-0.206447 1.122904,-3.747093 0.274977,-1.290787 0.747937,-3.574719 1.049911,-5.075962 0.301974,-1.501242 0.629946,-3.033551 0.724938,-3.404351 1.041911,-4.038722 2.791762,-7.3608971 5.153561,-9.7871368 1.427879,-1.4671684 2.777764,-2.4553024 4.511616,-3.3021311 1.898838,-0.92700203 3.802676,-1.46315991 6.202472,-1.74677239 2.680772,-0.3166839 7.796336,0.0340736 10.984065,0.75162319 1.681857,0.3808224 4.549612,1.3058201 6.176474,1.9943069 2.001829,0.8458266 4.279635,2.0183588 5.798506,2.9844451 0.581951,0.3708008 0.82793,0.4830432 1.05391,0.4850475 0.09599,0 0.880925,-0.177383 1.742852,-0.3938505 1.856842,-0.4680108 2.249808,-0.5291428 3.17573,-0.4900584 1.136902,0.048104 3.437706,0.3738073 4.169643,0.5902748 0.886925,0.2605627 1.957834,1.1304413 2.849758,2.3109907 0.695941,0.9239955 1.379882,2.52345 1.629861,3.813235 0.250979,1.294797 0.291975,1.749779 0.315973,3.527618 0.027,2.058446 -0.009,3.165837 -0.384967,11.861616 -0.162986,3.748095 -0.308974,7.196542 -0.324972,7.66355 -0.016,0.467009 -0.04,0.92099 -0.054,1.009179 -0.023,0.152329 -0.014,0.162352 0.189984,0.215466 1.336886,0.350757 11.320036,3.604785 12.9229,4.213099 1.801846,0.683476 2.951748,1.425077 3.561696,2.295958 0.888925,1.267737 0.455962,2.813075 -1.241894,4.434576 -1.571866,1.501243 -4.451621,3.282089 -7.943324,4.91261 -0.764934,0.357773 -1.006914,0.492062 -1.001914,0.558206 0.004,0.04711 0.177985,0.450973 0.387967,0.898941 0.989915,2.115568 1.621862,3.94552 2.270806,6.576202 0.491959,1.990297 0.82693,4.883546 0.879925,7.58939 0.06799,3.461475 -0.319972,6.69145 -1.382882,11.532906 -0.657944,2.994467 -1.883839,6.860816 -3.109735,9.811187 -0.852927,2.054438 -2.276806,5.057924 -3.089737,6.516073 a 88.992421,89.192618 0 0 1 -3.127734,5.116045 c -1.444877,2.16868 -3.809675,5.29143 -5.065568,6.69045 -1.662859,1.853 -4.259637,4.47968 -5.936494,6.00296 -2.81276,2.55953 -4.839588,4.14295 -8.022317,6.27055 -2.489788,1.6646 -6.199472,3.705 -8.492277,4.67008 -1.179899,0.49608 -1.453876,0.55119 -1.958833,0.38784 z m 1.539869,-5.48084 a 82.992932,83.179633 0 0 0 5.110565,-2.87821 c 2.858756,-1.74677 7.27538,-5.23431 10.125138,-7.99326 0.891924,-0.86387 2.749766,-2.87321 3.962662,-4.28526 1.661858,-1.93418 3.728682,-4.710168 4.975576,-6.679421 a 73.993699,74.160155 0 0 0 4.823589,-8.912246 c 1.390882,-3.059608 2.479789,-6.317644 3.279721,-9.811188 1.029912,-4.496711 1.301889,-6.697464 1.302889,-10.534751 0,-2.365107 -0.09199,-3.666919 -0.375968,-5.328508 -0.304974,-1.781847 -1.126904,-4.655052 -1.789848,-6.251499 -0.385967,-0.931011 -0.929921,-2.049426 -0.995915,-2.049426 -0.032,0 -0.602949,0.19041 -1.267892,0.423915 a 90.992251,91.196947 0 0 1 -6.978406,2.171689 c -3.15773,0.864869 -4.651603,1.192576 -8.169303,1.793875 -2.82776,0.483043 -6.298464,0.829791 -9.291209,0.928004 -0.956919,0.03107 -2.050826,0.100215 -4.682601,0.298645 -2.133819,0.160346 -3.155732,0.210455 -5.579525,0.280606 -2.46579,0.07115 -7.193388,0.02706 -8.618267,-0.08017 -3.421708,-0.258562 -8.285294,-0.843826 -11.409028,-1.372969 -1.749851,-0.29664 -4.076653,-0.924997 -6.57444,-1.776837 -0.684942,-0.234506 -1.281891,-0.436944 -1.326887,-0.451976 -0.09599,-0.03207 -0.229981,0.294636 -0.631946,1.529303 -0.570952,1.757796 -1.013914,3.510581 -1.223896,4.84346 -0.256978,1.633527 -0.326972,2.713861 -0.327972,5.017836 0,3.151807 0.180984,5.128074 0.724938,7.862981 0.69994,3.513587 1.326887,5.870678 2.322802,8.712816 1.112905,3.178864 3.003744,7.112359 5.183559,10.783287 1.298889,2.188726 2.031827,3.293112 3.449706,5.193214 1.779848,2.38515 2.759765,3.55267 5.135563,6.11621 2.289805,2.47033 5.181559,4.97474 8.937239,7.73871 2.032827,1.49624 4.599608,3.03656 7.970321,4.78835 0.479959,0.24853 0.880925,0.45297 0.892924,0.45397 0.011,0 0.481959,-0.23851 1.045911,-0.53115 z m -1.913837,-8.78897 c -2.159816,-0.26358 -4.165645,-0.86888 -5.204557,-1.5694 -0.944919,-0.63737 -2.211812,-1.73374 -2.70477,-2.34105 -0.646944,-0.79672 -1.364883,-1.97226 -1.452876,-2.38014 -0.044,-0.20545 0.046,-0.54117 0.209982,-0.78169 0.165986,-0.24453 0.570952,-0.48104 0.82193,-0.48204 0.363969,-0.001 0.563952,0.12527 1.454876,0.91698 0.701941,0.62435 0.82193,0.70753 1.495873,1.03223 1.438878,0.6925 2.661773,1.02221 4.543613,1.22164 1.41388,0.15032 3.211727,0.0832 4.726598,-0.17638 a 11.749,11.77543 0 0 0 4.381627,-1.69667 c 1.575865,-1.01619 2.016828,-1.24869 2.372798,-1.24869 0.309973,0 0.445962,0.0571 0.709939,0.30265 0.401966,0.3708 0.489958,0.91197 0.212982,1.31885 -0.429963,0.63437 -2.197813,2.39417 -3.387712,3.37128 -0.967917,0.79472 -1.437877,1.1124 -2.251808,1.52028 -1.219896,0.61132 -2.081823,0.84683 -3.576695,0.9721 -0.59295,0.0501 -2.009829,0.0631 -2.3508,0.0201 z M 37.489084,95.74957 c -1.909838,-0.09019 -2.70277,-0.197427 -4.191643,-0.569229 -1.789848,-0.445963 -2.875755,-0.830795 -4.734597,-1.675619 -1.339886,-0.609316 -2.11282,-1.068307 -3.277721,-1.944199 -2.195813,-1.651566 -4.723598,-4.233141 -5.951493,-6.078126 -0.416965,-0.626352 -1.158902,-2.082497 -1.672858,-3.284092 -0.868926,-2.030385 -1.329887,-3.841296 -1.544868,-6.0661 -0.09499,-0.984125 -0.109991,-3.108714 -0.026,-3.798203 0.047,-0.388839 0.449962,-2.007335 0.514956,-2.072475 0.01,-0.01002 0.896924,-0.0451 1.969832,-0.07917 4.46762,-0.140304 6.93941,0.23651 10.33412,1.575402 2.328802,0.917982 4.006659,1.838971 5.353545,2.936341 1.042911,0.849835 3.226725,2.923313 4.038656,3.83428 1.237894,1.389 2.272806,3.181872 3.258722,5.642185 0.903923,2.258878 1.226896,3.663913 1.439878,6.263527 0.07599,0.938025 0.032,3.229976 -0.06999,3.679947 -0.205983,0.895934 -0.625947,1.338892 -1.453877,1.533311 -0.615947,0.145314 -2.201812,0.1854 -3.98566,0.102221 z m 15.020721,0.02706 c -0.721939,-0.128277 -0.93592,-0.217469 -1.279891,-0.535155 -0.292975,-0.270584 -0.440963,-0.534154 -0.569952,-1.01419 -0.09199,-0.342741 -0.10999,-0.57424 -0.129989,-1.732743 q -0.04999,-2.66776 0.409966,-4.953697 c 0.322972,-1.609476 1.139902,-3.802211 2.139817,-5.741399 1.033912,-2.007336 1.541869,-2.693818 3.226726,-4.356408 2.332801,-2.302974 3.623691,-3.356248 5.156561,-4.205082 0.763934,-0.423915 2.265807,-1.120419 3.214726,-1.493224 3.39771,-1.329872 5.8545,-1.701676 10.307121,-1.562374 1.074909,0.03408 1.961833,0.07015 1.970832,0.07917 0.066,0.06614 0.467961,1.684638 0.513957,2.072475 0.032,0.263569 0.057,1.040246 0.056,1.726729 -0.007,3.680949 -0.691941,6.430888 -2.484789,9.974541 -0.259977,0.515113 -0.626946,1.166519 -0.81393,1.447125 -1.601864,2.405194 -5.019573,5.652206 -7.539357,7.159461 -1.281891,0.766656 -3.902668,1.859015 -5.609523,2.337048 -1.223895,0.343742 -2.863756,0.590275 -4.832588,0.726569 -0.786933,0.05412 -3.534699,0.106229 -3.736682,0.07015 z m -0.82193,-20.451165 c -0.535954,-0.199431 -0.810931,-0.76365 -0.677942,-1.387999 0.155986,-0.729575 0.904923,-2.064457 1.818845,-3.243003 1.274891,-1.643549 2.644775,-2.971417 4.529614,-4.391483 0.94492,-0.711537 1.469875,-1.033232 2.499787,-1.533312 1.657859,-0.804737 3.303719,-1.395012 4.856587,-1.741761 1.603863,-0.35677 2.677772,-0.493065 3.935664,-0.497073 0.959918,-0.004 1.059909,0.02005 1.309888,0.317686 0.183984,0.220476 0.249979,0.469013 0.222981,0.846829 -0.05599,0.777679 -0.454961,1.096366 -2.191812,1.749778 -2.675773,1.007175 -4.373628,1.830954 -6.963407,3.379298 -1.956834,1.170527 -3.872671,2.595605 -6.127479,4.562854 -1.726853,1.50525 -2.308803,1.912129 -2.81576,1.967248 A 1.0999063,1.1023806 0 0 1 51.687875,75.32446 M 41.127774,75.27134 c -0.429963,-0.156333 -1.019913,-0.599289 -2.317803,-1.738749 -2.093821,-1.83797 -4.079652,-3.363263 -5.648519,-4.336365 a 66.994296,67.145005 0 0 0 -3.318717,-1.891084 c -1.112905,-0.581256 -2.776764,-1.30582 -4.259637,-1.855006 -1.312889,-0.487052 -1.869841,-0.821775 -2.096822,-1.260722 -0.126989,-0.246533 -0.151987,-0.790708 -0.048,-1.062295 a 0.9899157,0.99214261 0 0 1 0.637946,-0.580253 c 0.451961,-0.124268 2.384797,0.01804 3.799676,0.279603 2.051826,0.379821 3.829674,0.9721 5.827504,1.942195 1.029913,0.50008 1.554868,0.821775 2.498787,1.533311 2.727768,2.054438 4.789593,4.337368 5.919496,6.556159 0.464961,0.91197 0.552953,1.276758 0.416965,1.729735 -0.168986,0.565221 -0.840928,0.890925 -1.41088,0.683476 z m 0.07799,-21.607663 c 12.764913,-0.364788 22.148115,-1.947205 27.667644,-4.667079 1.424878,-0.701515 2.803761,-1.677623 3.39571,-2.403189 L 72.436104,46.388967 71.55118,45.520091 C 70.587262,44.574047 69.55135,43.68613 68.299457,42.73207 l -0.803931,-0.612323 -0.370969,0.03508 c -0.205982,0.01904 -0.978916,0.200433 -1.727852,0.406878 -3.589695,0.985128 -7.627351,1.904112 -10.156136,2.311994 -3.887669,0.627354 -6.319462,0.868876 -10.154135,1.006172 -2.46979,0.08819 -4.899583,-0.04009 -8.194302,-0.433937 -3.571696,-0.42592 -6.22347,-0.996151 -8.267296,-1.776837 -0.598946,-0.228492 -0.67494,-0.24653 -0.973914,-0.223481 -0.759936,0.05912 -2.722769,0.878898 -3.76068,1.571393 -1.248894,0.831797 -1.977832,1.729737 -2.129819,2.620661 -0.23298,1.359936 0.970917,2.756954 3.477704,4.038722 1.156902,0.591276 1.912837,0.878897 3.185729,1.215624 1.798847,0.475026 2.449791,0.558206 5.055569,0.648401 1.219896,0.04209 2.619777,0.0942 3.113735,0.117253 1.320888,0.06012 2.633776,0.06213 4.613607,0.006 z"
     id="path1"
     style="display:inline;fill:#d8a400;fill-opacity:1;stroke-width:1.00104" />
</svg>
